<svg width="352" height="281" viewBox="0 0 352 281" fill="none" xmlns="http://www.w3.org/2000/svg">
<g opacity="0.5">
<path d="M275.673 117.225H342.068C343.078 117.225 344.047 117.624 344.762 118.336H344.763C345.433 119.002 345.829 119.892 345.878 120.831L345.883 121.02V159.792C345.883 160.801 345.482 161.77 344.767 162.482H344.766C344.051 163.196 343.08 163.598 342.068 163.598H275.676C274.918 163.596 274.181 163.371 273.555 162.956L273.293 162.767L248.886 143.387C248.438 143.029 248.076 142.577 247.827 142.062C247.578 141.548 247.45 140.984 247.45 140.411C247.45 139.839 247.578 139.275 247.827 138.76C248.076 138.244 248.438 137.79 248.886 137.435L273.294 118.055L273.296 118.054C273.969 117.514 274.808 117.221 275.673 117.225Z" stroke="#1A1A1A"/>
<path d="M70.6992 117.225C71.5629 117.219 72.4018 117.512 73.0742 118.053L73.0771 118.055L97.4844 137.436C97.9323 137.791 98.2942 138.244 98.543 138.76C98.7917 139.275 98.9209 139.839 98.9209 140.411C98.9209 140.983 98.7917 141.547 98.543 142.062C98.2942 142.578 97.9322 143.031 97.4844 143.387L73.0771 162.768C72.4006 163.305 71.5613 163.598 70.6963 163.598H4.30273C3.35606 163.596 2.44641 163.241 1.74902 162.609L1.61328 162.479C0.900191 161.765 0.5 160.8 0.5 159.792V121.03C0.50007 120.023 0.899413 119.057 1.6123 118.343L1.61328 118.344C2.28146 117.675 3.17305 117.279 4.11426 117.229L4.30371 117.225H70.6992Z" stroke="#1A1A1A"/>
<path d="M174.338 12.2178C221.956 12.8437 259.842 52.4412 259.842 99.9736V113.019C259.841 113.581 259.716 114.135 259.477 114.644C259.236 115.152 258.887 115.602 258.453 115.961L240.187 130.978L235.254 134.833C234.369 135.522 233.655 136.404 233.163 137.411C232.671 138.418 232.415 139.524 232.415 140.645C232.415 141.765 232.671 142.871 233.163 143.878C233.655 144.884 234.369 145.766 235.254 146.456L240.187 150.312L258.453 165.328C258.833 165.64 259.148 166.021 259.381 166.45L259.476 166.638C259.716 167.144 259.841 167.697 259.842 168.258V179.336C259.842 226.868 221.956 266.478 174.338 267.092C162.862 267.245 151.47 265.124 140.822 260.847C130.176 256.571 120.486 250.228 112.316 242.184C104.148 234.14 97.6612 224.557 93.2344 213.99C88.8076 203.425 86.5283 192.086 86.5293 180.635V168.258L86.5352 168.048C86.5629 167.558 86.6854 167.077 86.8955 166.632C87.1355 166.124 87.4847 165.673 87.918 165.315L106.223 150.298L106.224 150.299L111.169 146.443L111.17 146.442C112.052 145.751 112.764 144.869 113.255 143.862V143.861C113.744 142.856 114 141.751 114 140.632C114 139.513 113.744 138.407 113.255 137.401C112.764 136.394 112.052 135.512 111.17 134.82L111.169 134.819L106.224 130.964H106.223L87.918 115.947C87.484 115.592 87.1336 115.144 86.8936 114.638C86.6537 114.131 86.5295 113.578 86.5293 113.019V98.6758C86.53 87.2242 88.81 75.8864 93.2373 65.3213C97.5263 55.0864 103.748 45.7734 111.56 37.8887L112.321 37.1299C120.49 29.0866 130.178 22.7423 140.824 18.4658C151.471 14.1892 162.863 12.0654 174.338 12.2178ZM223.491 98.667C223.279 85.4878 217.882 72.9205 208.468 63.6758C199.053 54.4312 186.374 49.2501 173.167 49.25C159.958 49.25 147.28 54.431 137.865 63.6758C128.45 72.9205 123.054 85.4878 122.842 98.667V180.643C123.054 193.822 128.449 206.389 137.865 215.634C147.28 224.878 159.958 230.06 173.167 230.06C186.374 230.059 199.053 224.878 208.468 215.634C217.882 206.39 223.279 193.822 223.491 180.643V98.667Z" stroke="#1A1A1A"/>
</g>
</svg>
