<svg width="391" height="44" viewBox="0 0 391 44" fill="none" xmlns="http://www.w3.org/2000/svg">
<g clip-path="url(#clip0_5403_26)">
<path d="M389.678 -0.117174H380.762C380.564 -0.116454 380.372 -0.0688922 380.194 0.0215998C380.02 0.112092 379.868 0.242934 379.755 0.403328L362.292 24.8271L344.832 0.403328C344.716 0.241746 344.567 0.110019 344.39 0.0193895C344.216 -0.0712399 344.02 -0.118087 343.822 -0.117174H334.915C334.686 -0.117211 334.46 -0.0537577 334.264 0.0661574C334.069 0.186072 333.91 0.357772 333.806 0.562311C333.699 0.76685 333.654 0.996263 333.672 1.22516C333.69 1.45408 333.773 1.67357 333.907 1.85939L357.666 34.631V42.8336C357.669 43.1627 357.8 43.4778 358.035 43.7098C358.268 43.9422 358.582 44.0722 358.912 44.0722H365.678C366.008 44.0722 366.323 43.9419 366.555 43.7095C366.787 43.4772 366.918 43.1621 366.918 42.8336V34.6506L390.686 1.85939C390.82 1.67357 390.903 1.45408 390.918 1.22516C390.936 0.996263 390.891 0.76685 390.787 0.562311C390.683 0.357772 390.524 0.186072 390.329 0.0661574C390.133 -0.0537577 389.907 -0.117211 389.678 -0.117174Z" fill="white"/>
<path d="M42.6601 44.0907C54.8041 44.0907 64.9254 34.4318 65.0637 22.2956C65.1046 19.3686 64.5635 16.4626 63.4716 13.7465C62.3797 11.0304 60.7589 8.55835 58.703 6.47406C56.6474 4.38977 54.198 2.73479 51.4969 1.60528C48.7961 0.47576 45.8974 -0.105754 42.9698 -0.105467H22.1742C19.2463 -0.106639 16.3474 0.474282 13.646 1.60348C10.9447 2.73268 8.49486 4.38764 6.439 6.47211C4.38314 8.55658 2.76224 11.029 1.67063 13.7455C0.579023 16.462 0.0384628 19.3684 0.0803899 22.2956C0.238532 34.4318 10.3596 44.0907 22.4839 44.0907H42.6601ZM22.1742 34.6293C20.5154 34.6293 18.8728 34.3026 17.3403 33.6682C15.8077 33.0334 14.4152 32.1028 13.2423 30.9301C12.0693 29.7574 11.1389 28.3649 10.5041 26.8326C9.86929 25.3002 9.54257 23.6578 9.54257 21.9992C9.54257 20.3405 9.86929 18.6981 10.5041 17.1658C11.1389 15.6334 12.0693 14.2411 13.2423 13.0682C14.4152 11.8954 15.8077 10.965 17.3403 10.3303C18.8728 9.69558 20.5154 9.3689 22.1742 9.3689H42.9896C44.6486 9.3689 46.291 9.69558 47.8235 10.3303C49.3561 10.965 50.7485 11.8954 51.9216 13.0682C53.0944 14.2411 54.0248 15.6334 54.6596 17.1658C55.2944 18.6981 55.6212 20.3405 55.6212 21.9992C55.6212 23.6578 55.2944 25.3002 54.6596 26.8326C54.0248 28.3649 53.0944 29.7574 51.9216 30.9301C50.7485 32.1028 49.3561 33.0334 47.8235 33.6682C46.291 34.3026 44.6486 34.6293 42.9896 34.6293H22.1742Z" fill="white"/>
<path d="M183.372 44.0907C195.516 44.0907 205.637 34.4318 205.775 22.2956C205.816 19.3686 205.275 16.4626 204.183 13.7465C203.091 11.0304 201.47 8.55835 199.415 6.47406C197.359 4.38977 194.91 2.73479 192.209 1.60528C189.508 0.475755 186.609 -0.105759 183.681 -0.105469H162.859C159.932 -0.104873 157.034 0.477254 154.333 1.60708C151.633 2.7369 149.184 4.39191 147.128 6.47605C145.073 8.56015 143.452 11.0318 142.36 13.7475C141.267 16.4632 140.726 19.3688 140.766 22.2956C140.924 34.4318 151.052 44.0907 163.169 44.0907H183.372ZM162.879 34.6293C159.529 34.6293 156.316 33.2987 153.948 30.9301C151.579 28.5615 150.248 25.3489 150.248 21.9992C150.248 18.6494 151.579 15.4369 153.948 13.0682C156.316 10.6996 159.529 9.3689 162.879 9.3689H183.701C185.36 9.3689 187.003 9.69558 188.535 10.3303C190.068 10.965 191.46 11.8954 192.633 13.0682C193.806 14.241 194.737 15.6334 195.371 17.1658C196.006 18.6981 196.333 20.3405 196.333 21.9992C196.333 23.6578 196.006 25.3002 195.371 26.8326C194.737 28.3649 193.806 29.7574 192.633 30.9301C191.46 32.1028 190.068 33.0334 188.535 33.6682C187.003 34.3026 185.36 34.6293 183.701 34.6293H162.879Z" fill="white"/>
<path d="M126.212 0.403315L102.919 33.0562L79.6387 0.403315C79.522 0.243181 79.3697 0.112659 79.1932 0.0222524C79.017 -0.0681511 78.8222 -0.11592 78.624 -0.117187H71.8569C71.5284 -0.117187 71.2133 0.0133068 70.9809 0.245599C70.7485 0.477891 70.6182 0.792957 70.6182 1.12147V42.8733C70.6182 43.2024 70.7482 43.5181 70.9806 43.7514C71.2127 43.9846 71.5278 44.1168 71.8569 44.1184H78.6304C78.9596 44.1168 79.2747 43.9846 79.5071 43.7514C79.7391 43.5181 79.8692 43.2024 79.8692 42.8733V17.8367L98.4443 43.5914C98.5591 43.7517 98.7106 43.8826 98.8859 43.973C99.0611 44.0637 99.2553 44.111 99.4526 44.1119H106.404C106.601 44.1126 106.795 44.0661 106.971 43.9767C107.146 43.8872 107.297 43.7575 107.412 43.5978L126.001 17.8301V42.8666C126.001 43.1957 126.131 43.5114 126.363 43.7446C126.595 43.9782 126.911 44.1101 127.24 44.1119H134.007C134.337 44.1119 134.654 43.9807 134.887 43.7471C135.121 43.5135 135.252 43.1969 135.252 42.8666V1.12147C135.25 0.792346 135.118 0.477301 134.885 0.245196C134.652 0.013093 134.336 -0.117191 134.007 -0.117187H127.22C127.023 -0.116464 126.828 -0.0689022 126.653 0.0215898C126.478 0.112082 126.326 0.242921 126.212 0.403315Z" fill="white"/>
<path d="M220.36 43.5978L243.653 10.945L266.932 43.5978C267.049 43.7581 267.202 43.8884 267.378 43.9791C267.554 44.0695 267.749 44.1171 267.947 44.1184H274.714C275.044 44.1168 275.359 43.9846 275.591 43.7514C275.823 43.5181 275.953 43.2024 275.953 42.8733V1.12147C275.953 0.792956 275.823 0.477896 275.59 0.245604C275.358 0.0133119 275.043 -0.117182 274.714 -0.117182H267.947C267.618 -0.117185 267.302 0.0130952 267.069 0.245201C266.836 0.477307 266.704 0.792345 266.702 1.12147V26.158L248.127 0.396725C248.011 0.237934 247.859 0.108664 247.684 0.0193815C247.509 -0.0698984 247.315 -0.116685 247.119 -0.117182H240.18C239.983 -0.117747 239.789 -0.0714341 239.614 0.0179344C239.439 0.107303 239.287 0.237156 239.172 0.396725L220.59 26.158V1.12147C220.588 0.792345 220.456 0.477307 220.223 0.245201C219.99 0.0130952 219.674 -0.117185 219.345 -0.117182H212.584C212.255 -0.117185 211.939 0.0130952 211.706 0.245201C211.473 0.477307 211.341 0.792345 211.339 1.12147V42.8733C211.339 43.2033 211.47 43.5202 211.704 43.7538C211.937 43.9874 212.254 44.1184 212.584 44.1184H219.351C219.549 44.1177 219.743 44.0701 219.918 43.9797C220.093 43.8891 220.245 43.7584 220.36 43.5978Z" fill="white"/>
<path d="M347.265 42.1683L319.589 0.462612C319.482 0.291627 319.332 0.149541 319.158 0.0485549C318.981 -0.0524307 318.783 -0.109305 318.581 -0.117185H308.236C308.032 -0.117603 307.83 -0.0672659 307.65 0.029314C307.47 0.125894 307.314 0.265703 307.201 0.436252L279.527 42.1417C279.401 42.3277 279.328 42.5445 279.316 42.7686C279.304 42.993 279.354 43.2161 279.46 43.4143C279.566 43.6124 279.724 43.7776 279.916 43.8924C280.109 44.0075 280.33 44.0674 280.555 44.0658H289.549C289.754 44.0649 289.955 44.0142 290.135 43.9178C290.316 43.8213 290.47 43.6821 290.584 43.5123L313.381 9.10681L336.209 43.5517C336.319 43.7217 336.471 43.8613 336.652 43.9581C336.832 44.0545 337.033 44.1052 337.235 44.1052H346.258C346.481 44.1058 346.701 44.0454 346.893 43.9306C347.085 43.8158 347.244 43.6506 347.351 43.4531C347.455 43.2558 347.507 43.033 347.497 42.8092C347.485 42.5851 347.415 42.3683 347.29 42.1814" fill="white"/>
</g>
<defs>
<clipPath id="clip0_5403_26">
<rect width="391" height="44" fill="white"/>
</clipPath>
</defs>
</svg>
