<svg width="55" height="44" viewBox="0 0 55 44" fill="none" xmlns="http://www.w3.org/2000/svg">
<g clip-path="url(#clip0_5403_34)">
<path d="M44.4866 18.4233L40.6729 21.458C40.5937 21.5211 40.5297 21.6014 40.4857 21.6927C40.4417 21.784 40.4189 21.8839 40.4189 21.9853C40.4189 22.0867 40.4417 22.1866 40.4857 22.2779C40.5297 22.3692 40.5937 22.4493 40.6729 22.5126L44.4866 25.5473C44.6063 25.6421 44.7544 25.6938 44.9071 25.6941H55.2812C55.46 25.6941 55.6316 25.6232 55.7579 25.4967C55.8844 25.3704 55.9553 25.1988 55.9553 25.02V18.9486C55.9548 18.77 55.8837 18.5991 55.7572 18.4732C55.6308 18.3471 55.4596 18.2764 55.2812 18.2764H44.9071C44.7542 18.2758 44.6057 18.3276 44.4866 18.4233Z" fill="white"/>
<path d="M13.2999 25.5473L17.1135 22.5126C17.1927 22.4495 17.2567 22.3692 17.3007 22.2779C17.3447 22.1866 17.3675 22.0867 17.3675 21.9853C17.3675 21.8839 17.3447 21.784 17.3007 21.6927C17.2567 21.6014 17.1927 21.5211 17.1135 21.4581L13.2999 18.4233C13.1808 18.3274 13.0322 18.2755 12.8793 18.2764H2.50516C2.32671 18.2769 2.15575 18.3482 2.02976 18.4745C1.90376 18.601 1.83301 18.772 1.83301 18.9506V25.02C1.83301 25.1986 1.90376 25.3697 2.02976 25.4962C2.15575 25.6225 2.32671 25.6938 2.50516 25.6942H12.8793C13.0321 25.6942 13.1803 25.6425 13.2999 25.5473Z" fill="white"/>
<path d="M42.5117 26.3458C42.5115 26.2464 42.4895 26.1485 42.447 26.0587C42.4046 25.9688 42.3428 25.8896 42.2662 25.8266L39.4106 23.474L38.6399 22.8703C38.511 22.7695 38.4069 22.6408 38.3352 22.4939C38.2635 22.3469 38.2263 22.1856 38.2263 22.022C38.2263 21.8585 38.2635 21.6972 38.3352 21.5501C38.4069 21.4031 38.511 21.2744 38.6399 21.1738L39.4106 20.57L42.2662 18.2175C42.3428 18.154 42.4046 18.0743 42.4472 17.9842C42.4895 17.8942 42.5115 17.7958 42.5117 17.6963V15.6536C42.5117 8.16937 36.559 1.93281 29.0747 1.83421C27.2714 1.81022 25.4811 2.14469 23.808 2.8182C22.1349 3.49169 20.6124 4.49082 19.3287 5.75756C18.0448 7.02432 17.0254 8.53345 16.3296 10.1974C15.6339 11.8613 15.2755 13.6468 15.2754 15.4504V17.6963C15.2754 17.7956 15.2974 17.8936 15.3399 17.9834C15.3824 18.0732 15.4442 18.1524 15.5209 18.2155L18.3827 20.568L19.1554 21.1717C19.2839 21.2728 19.3877 21.4015 19.4592 21.5485C19.5305 21.6953 19.5677 21.8567 19.5677 22.02C19.5677 22.1834 19.5305 22.3447 19.4592 22.4916C19.3877 22.6386 19.2839 22.7673 19.1554 22.8683L18.3827 23.472L15.5209 25.8246C15.4442 25.888 15.3825 25.9677 15.3401 26.0578C15.2976 26.1478 15.2755 26.2462 15.2754 26.3458V28.2838C15.2752 30.0872 15.6334 31.8731 16.3291 33.537C17.0248 35.2011 18.0442 36.7103 19.3279 37.9772C20.6118 39.244 22.1346 40.243 23.8077 40.9164C25.481 41.5899 27.2712 41.9242 29.0747 41.9C36.559 41.8033 42.5117 35.5647 42.5117 28.0805V26.3458ZM36.6756 28.2838C36.6428 30.3269 35.8081 32.2751 34.3517 33.7083C32.8953 35.1414 30.9338 35.9447 28.8906 35.9447C26.8472 35.9447 24.8859 35.1414 23.4295 33.7083C21.9729 32.2751 21.1383 30.3269 21.1055 28.2838V15.4504C21.1383 13.4073 21.9729 11.459 23.4295 10.0258C24.8859 8.59265 26.8472 7.78941 28.8906 7.78941C30.9338 7.78941 32.8953 8.59265 34.3517 10.0258C35.8081 11.459 36.6428 13.4073 36.6756 15.4504V28.2838Z" fill="white"/>
</g>
<defs>
<clipPath id="clip0_5403_34">
<rect width="55" height="44" fill="white"/>
</clipPath>
</defs>
</svg>
