<svg width="166" height="24" viewBox="0 0 166 24" fill="none" xmlns="http://www.w3.org/2000/svg">
<g clip-path="url(#clip0_5135_69)">
<path d="M24.2656 10.0494L22.1854 11.7047C22.1422 11.7391 22.1073 11.7829 22.0833 11.8327C22.0593 11.8825 22.0469 11.937 22.0469 11.9923C22.0469 12.0476 22.0593 12.1021 22.0833 12.1519C22.1073 12.2017 22.1422 12.2454 22.1854 12.2799L24.2656 13.9352C24.3309 13.9869 24.4117 14.0151 24.495 14.0153H30.1536C30.2511 14.0153 30.3447 13.9766 30.4136 13.9076C30.4826 13.8387 30.5213 13.7451 30.5213 13.6476V10.3359C30.521 10.2385 30.4822 10.1453 30.4132 10.0766C30.3443 10.0078 30.2509 9.96924 30.1536 9.96924H24.495C24.4116 9.96892 24.3306 9.9972 24.2656 10.0494Z" fill="white"/>
<path d="M7.25466 13.9352L9.33479 12.2799C9.37802 12.2455 9.41293 12.2017 9.43692 12.1519C9.46091 12.1021 9.47336 12.0476 9.47336 11.9923C9.47336 11.937 9.46091 11.8825 9.43692 11.8327C9.41293 11.7829 9.37802 11.7391 9.33479 11.7047L7.25466 10.0494C7.1897 9.99705 7.10866 9.96874 7.02525 9.96924H1.36663C1.26929 9.96954 1.17604 10.0084 1.10732 10.0773C1.03859 10.1463 1 10.2396 1 10.337V13.6476C1 13.745 1.03859 13.8383 1.10732 13.9073C1.17604 13.9762 1.26929 14.0151 1.36663 14.0153H7.02525C7.10857 14.0153 7.18944 13.9871 7.25466 13.9352Z" fill="white"/>
<path d="M23.1882 14.3706C23.1881 14.3164 23.1761 14.263 23.1529 14.214C23.1298 14.165 23.0961 14.1218 23.0543 14.0874L21.4967 12.8042L21.0763 12.4749C21.006 12.4199 20.9492 12.3497 20.9101 12.2696C20.871 12.1894 20.8507 12.1014 20.8507 12.0122C20.8507 11.923 20.871 11.835 20.9101 11.7548C20.9492 11.6746 21.006 11.6044 21.0763 11.5495L21.4967 11.2202L23.0543 9.93699C23.0961 9.90234 23.1298 9.8589 23.153 9.80977C23.1761 9.76063 23.1881 9.707 23.1882 9.65269V8.53853C23.1882 4.4562 19.9413 1.05444 15.8589 1.00066C14.8753 0.98757 13.8988 1.17001 12.9862 1.53738C12.0736 1.90474 11.2431 2.44972 10.5429 3.14067C9.84263 3.83163 9.2866 4.65479 8.90708 5.56238C8.52756 6.46997 8.33209 7.44391 8.33203 8.42766V9.65269C8.33205 9.70685 8.34406 9.76034 8.36722 9.80931C8.39038 9.85828 8.42409 9.90151 8.46595 9.93589L10.0269 11.2191L10.4484 11.5484C10.5185 11.6035 10.5751 11.6737 10.6141 11.7539C10.653 11.834 10.6733 11.922 10.6733 12.0111C10.6733 12.1002 10.653 12.1882 10.6141 12.2683C10.5751 12.3485 10.5185 12.4187 10.4484 12.4738L10.0269 12.8031L8.46595 14.0863C8.42413 14.1209 8.39044 14.1644 8.3673 14.2135C8.34415 14.2626 8.33211 14.3163 8.33203 14.3706V15.4277C8.33194 16.4114 8.52731 17.3855 8.90678 18.2931C9.28625 19.2008 9.84227 20.024 10.5425 20.715C11.2428 21.406 12.0734 21.9509 12.986 22.3182C13.8987 22.6856 14.8752 22.8679 15.8589 22.8547C19.9413 22.802 23.1882 19.3991 23.1882 15.3168V14.3706ZM20.0049 15.4277C19.987 16.5421 19.5317 17.6048 18.7373 18.3865C17.9429 19.1682 16.873 19.6064 15.7585 19.6064C14.6439 19.6064 13.5741 19.1682 12.7797 18.3865C11.9852 17.6048 11.53 16.5421 11.5121 15.4277V8.42766C11.53 7.31326 11.9852 6.25056 12.7797 5.46882C13.5741 4.68708 14.6439 4.24895 15.7585 4.24895C16.873 4.24895 17.9429 4.68708 18.7373 5.46882C19.5317 6.25056 19.987 7.31326 20.0049 8.42766V15.4277Z" fill="white"/>
</g>
<g clip-path="url(#clip1_5135_69)">
<path d="M165.581 4.96289H162.754C162.691 4.96312 162.63 4.97826 162.574 5.00705C162.518 5.03584 162.47 5.07747 162.434 5.12851L156.896 12.8997L151.359 5.12851C151.322 5.0771 151.275 5.03518 151.219 5.00635C151.163 4.97751 151.101 4.9626 151.038 4.96289H148.214C148.141 4.96288 148.069 4.98307 148.007 5.02123C147.945 5.05938 147.895 5.11401 147.862 5.17909C147.828 5.24418 147.814 5.31717 147.82 5.39C147.825 5.46284 147.852 5.53268 147.894 5.5918L155.429 16.0191V18.629C155.43 18.7338 155.472 18.834 155.546 18.9079C155.62 18.9818 155.719 19.0232 155.824 19.0232H157.97C158.075 19.0232 158.174 18.9817 158.248 18.9078C158.321 18.8338 158.363 18.7336 158.363 18.629V16.0254L165.901 5.5918C165.943 5.53268 165.97 5.46284 165.974 5.39C165.98 5.31717 165.966 5.24418 165.933 5.17909C165.9 5.11401 165.85 5.05938 165.788 5.02123C165.726 4.98307 165.654 4.96288 165.581 4.96289Z" fill="white"/>
<path d="M55.5297 19.0287C59.3809 19.0287 62.5908 15.9554 62.6346 12.0939C62.6476 11.1626 62.476 10.238 62.1297 9.37375C61.7834 8.50953 61.2694 7.72298 60.6174 7.0598C59.9655 6.39661 59.1887 5.87003 58.3321 5.51064C57.4756 5.15124 56.5563 4.96622 55.6279 4.96631H49.0328C48.1043 4.96594 47.185 5.15077 46.3283 5.51006C45.4716 5.86936 44.6946 6.39593 44.0426 7.05917C43.3907 7.72241 42.8766 8.50908 42.5304 9.37342C42.1842 10.2378 42.0128 11.1625 42.0261 12.0939C42.0763 15.9554 45.286 19.0287 49.131 19.0287H55.5297ZM49.0328 16.0183C48.5068 16.0183 47.9859 15.9143 47.4998 15.7125C47.0138 15.5105 46.5722 15.2144 46.2002 14.8413C45.8282 14.4681 45.5332 14.0251 45.3318 13.5375C45.1305 13.0499 45.0269 12.5274 45.0269 11.9996C45.0269 11.4719 45.1305 10.9493 45.3318 10.4617C45.5332 9.97413 45.8282 9.53112 46.2002 9.15794C46.5722 8.78477 47.0138 8.48875 47.4998 8.28678C47.9859 8.08483 48.5068 7.98088 49.0328 7.98088H55.6341C56.1603 7.98088 56.6811 8.08483 57.1672 8.28678C57.6532 8.48875 58.0948 8.78477 58.4668 9.15794C58.8387 9.53112 59.1338 9.97413 59.3351 10.4617C59.5364 10.9493 59.6401 11.4719 59.6401 11.9996C59.6401 12.5274 59.5364 13.0499 59.3351 13.5375C59.1338 14.0251 58.8387 14.4681 58.4668 14.8413C58.0948 15.2144 57.6532 15.5105 57.1672 15.7125C56.6811 15.9143 56.1603 16.0183 55.6341 16.0183H49.0328Z" fill="white"/>
<path d="M100.154 19.0287C104.005 19.0287 107.215 15.9554 107.259 12.0939C107.272 11.1626 107.101 10.238 106.754 9.37375C106.408 8.50953 105.894 7.72298 105.242 7.0598C104.59 6.39661 103.813 5.87003 102.957 5.51064C102.1 5.15124 101.181 4.96622 100.252 4.96631H93.6489C92.7206 4.9665 91.8015 5.15172 90.9451 5.51121C90.0886 5.8707 89.3119 6.39729 88.66 7.06043C88.0082 7.72355 87.4941 8.50999 87.1477 9.37408C86.8014 10.2382 86.6296 11.1627 86.6423 12.0939C86.6924 15.9554 89.9043 19.0287 93.7472 19.0287H100.154ZM93.6552 16.0183C92.5928 16.0183 91.5739 15.5949 90.8227 14.8413C90.0714 14.0876 89.6493 13.0654 89.6493 11.9996C89.6493 10.9338 90.0714 9.91159 90.8227 9.15794C91.5739 8.40428 92.5928 7.98088 93.6552 7.98088H100.259C100.785 7.98088 101.306 8.08482 101.792 8.28678C102.278 8.48875 102.719 8.78477 103.091 9.15794C103.463 9.53111 103.758 9.97413 103.96 10.4617C104.161 10.9493 104.265 11.4719 104.265 11.9996C104.265 12.5273 104.161 13.0499 103.96 13.5375C103.758 14.0251 103.463 14.4681 103.091 14.8413C102.719 15.2144 102.278 15.5105 101.792 15.7125C101.306 15.9143 100.785 16.0183 100.259 16.0183H93.6552Z" fill="white"/>
<path d="M82.0271 5.1285L74.6401 15.5181L67.2572 5.1285C67.2202 5.07755 67.1719 5.03602 67.1159 5.00726C67.0601 4.97849 66.9983 4.96329 66.9354 4.96289H64.7893C64.6852 4.96289 64.5852 5.00441 64.5115 5.07832C64.4378 5.15223 64.3965 5.25248 64.3965 5.35701V18.6417C64.3965 18.7464 64.4377 18.8468 64.5114 18.9211C64.585 18.9953 64.685 19.0373 64.7893 19.0378H66.9375C67.0419 19.0373 67.1418 18.9953 67.2155 18.9211C67.2891 18.8468 67.3303 18.7464 67.3303 18.6417V10.6755L73.2212 18.8702C73.2576 18.9212 73.3056 18.9628 73.3612 18.9916C73.4168 19.0204 73.4784 19.0355 73.5409 19.0358H75.7456C75.8079 19.036 75.8695 19.0212 75.9251 18.9928C75.9807 18.9643 76.0287 18.923 76.0652 18.8722L81.9603 10.6734V18.6395C81.9603 18.7443 82.0016 18.8447 82.0753 18.9189C82.1489 18.9932 82.2488 19.0352 82.3532 19.0358H84.4993C84.604 19.0358 84.7045 18.994 84.7785 18.9197C84.8526 18.8454 84.8942 18.7446 84.8942 18.6395V5.35701C84.8937 5.25229 84.8517 5.15205 84.7778 5.07819C84.7038 5.00434 84.6037 4.96289 84.4993 4.96289H82.3469C82.2843 4.96312 82.2227 4.97825 82.1671 5.00705C82.1115 5.03584 82.0635 5.07747 82.0271 5.1285Z" fill="white"/>
<path d="M111.884 18.8722L119.271 8.48268L126.654 18.8722C126.691 18.9232 126.739 18.9647 126.795 18.9935C126.851 19.0223 126.913 19.0374 126.976 19.0378H129.122C129.226 19.0373 129.326 18.9953 129.4 18.9211C129.474 18.8468 129.515 18.7464 129.515 18.6417V5.35701C129.515 5.25248 129.474 5.15224 129.4 5.07832C129.326 5.00441 129.226 4.96289 129.122 4.96289H126.976C126.872 4.96289 126.771 5.00434 126.697 5.0782C126.623 5.15205 126.582 5.25229 126.581 5.35701V13.3232L120.69 5.12641C120.653 5.07588 120.605 5.03475 120.55 5.00634C120.494 4.97794 120.433 4.96305 120.37 4.96289H118.17C118.108 4.96271 118.046 4.97745 117.99 5.00588C117.935 5.03432 117.887 5.07564 117.85 5.12641L111.957 13.3232V5.35701C111.957 5.25229 111.915 5.15205 111.841 5.0782C111.767 5.00434 111.667 4.96289 111.562 4.96289H109.418C109.314 4.96289 109.214 5.00434 109.14 5.0782C109.066 5.15205 109.024 5.25229 109.023 5.35701V18.6417C109.023 18.7467 109.065 18.8475 109.139 18.9218C109.213 18.9962 109.314 19.0378 109.418 19.0378H111.565C111.627 19.0376 111.689 19.0225 111.744 18.9937C111.8 18.9649 111.848 18.9233 111.884 18.8722Z" fill="white"/>
<path d="M152.131 18.4174L143.354 5.14737C143.32 5.09297 143.272 5.04776 143.217 5.01563C143.161 4.9835 143.098 4.9654 143.034 4.96289H139.753C139.688 4.96276 139.624 4.97877 139.567 5.0095C139.51 5.04023 139.461 5.08472 139.425 5.13898L130.648 18.4089C130.608 18.4681 130.585 18.5371 130.582 18.6084C130.578 18.6798 130.594 18.7508 130.627 18.8138C130.661 18.8769 130.711 18.9294 130.772 18.9659C130.833 19.0026 130.903 19.0216 130.974 19.0211H133.827C133.892 19.0208 133.956 19.0047 134.013 18.974C134.07 18.9433 134.119 18.899 134.155 18.845L141.385 7.8978L148.624 18.8575C148.659 18.9116 148.708 18.956 148.765 18.9868C148.822 19.0175 148.886 19.0337 148.95 19.0337H151.811C151.882 19.0339 151.952 19.0146 152.013 18.9781C152.074 18.9416 152.124 18.889 152.158 18.8262C152.191 18.7634 152.207 18.6925 152.204 18.6213C152.2 18.55 152.178 18.481 152.138 18.4215" fill="white"/>
</g>
<defs>
<clipPath id="clip0_5135_69">
<rect width="30" height="24" fill="white"/>
</clipPath>
<clipPath id="clip1_5135_69">
<rect width="124" height="14" fill="white" transform="translate(42 5)"/>
</clipPath>
</defs>
</svg>
